<svg xmlns="http://www.w3.org/2000/svg" version="1.1" xmlns:xlink="http://www.w3.org/1999/xlink" xmlns:svgjs="http://svgjs.dev/svgjs" viewBox="0 0 800 800" opacity="1" width="800" height="800"><g stroke-width="2.25" stroke="hsla(194, 59%, 51%, 1.00)" fill="none"><rect width="80" height="80" x="0" y="0" opacity="0.15"></rect><circle r="7.894736842105264" cx="0" cy="0" fill="hsla(194, 59%, 51%, 1.00)" stroke="none"></circle><rect width="80" height="80" x="80" y="0" opacity="0.15"></rect><circle r="7.894736842105264" cx="80" cy="0" fill="hsla(194, 59%, 51%, 1.00)" stroke="none"></circle><rect width="80" height="80" x="160" y="0" opacity="0.15"></rect><circle r="7.894736842105264" cx="160" cy="0" fill="hsla(194, 59%, 51%, 1.00)" stroke="none"></circle><rect width="80" height="80" x="240" y="0" opacity="0.15"></rect><circle r="7.894736842105264" cx="240" cy="0" fill="hsla(194, 59%, 51%, 1.00)" stroke="none"></circle><rect width="80" height="80" x="320" y="0" opacity="0.15"></rect><circle r="7.894736842105264" cx="320" cy="0" fill="hsla(194, 59%, 51%, 1.00)" stroke="none"></circle><rect width="80" height="80" x="400" y="0" opacity="0.15"></rect><circle r="7.894736842105264" cx="400" cy="0" fill="hsla(194, 59%, 51%, 1.00)" stroke="none"></circle><rect width="80" height="80" x="480" y="0" opacity="0.15"></rect><circle r="7.894736842105264" cx="480" cy="0" fill="hsla(194, 59%, 51%, 1.00)" stroke="none"></circle><rect width="80" height="80" x="560" y="0" opacity="0.15"></rect><circle r="7.894736842105264" cx="560" cy="0" fill="hsla(194, 59%, 51%, 1.00)" stroke="none"></circle><rect width="80" height="80" x="640" y="0" opacity="0.15"></rect><circle r="7.894736842105264" cx="640" cy="0" fill="hsla(194, 59%, 51%, 1.00)" stroke="none"></circle><rect width="80" height="80" x="720" y="0" opacity="0.15"></rect><circle r="7.894736842105264" cx="720" cy="0" fill="hsla(194, 59%, 51%, 1.00)" stroke="none"></circle><rect width="80" height="80" x="800" y="0" opacity="0.15"></rect><circle r="7.894736842105264" cx="800" cy="0" fill="hsla(194, 59%, 51%, 1.00)" stroke="none"></circle><rect width="80" height="80" x="0" y="80" opacity="0.15"></rect><circle r="7.894736842105264" cx="0" cy="80" fill="hsla(194, 59%, 51%, 1.00)" stroke="none"></circle><rect width="80" height="80" x="80" y="80" opacity="0.15"></rect><circle r="7.894736842105264" cx="80" cy="80" fill="hsla(194, 59%, 51%, 1.00)" stroke="none"></circle><rect width="80" height="80" x="160" y="80" opacity="0.15"></rect><circle r="7.894736842105264" cx="160" cy="80" fill="hsla(194, 59%, 51%, 1.00)" stroke="none"></circle><rect width="80" height="80" x="240" y="80" opacity="0.15"></rect><circle r="7.894736842105264" cx="240" cy="80" fill="hsla(194, 59%, 51%, 1.00)" stroke="none"></circle><rect width="80" height="80" x="320" y="80" opacity="0.15"></rect><circle r="7.894736842105264" cx="320" cy="80" fill="hsla(194, 59%, 51%, 1.00)" stroke="none"></circle><rect width="80" height="80" x="400" y="80" opacity="0.15"></rect><circle r="7.894736842105264" cx="400" cy="80" fill="hsla(194, 59%, 51%, 1.00)" stroke="none"></circle><rect width="80" height="80" x="480" y="80" opacity="0.15"></rect><circle r="7.894736842105264" cx="480" cy="80" fill="hsla(194, 59%, 51%, 1.00)" stroke="none"></circle><rect width="80" height="80" x="560" y="80" opacity="0.15"></rect><circle r="7.894736842105264" cx="560" cy="80" fill="hsla(194, 59%, 51%, 1.00)" stroke="none"></circle><rect width="80" height="80" x="640" y="80" opacity="0.15"></rect><circle r="7.894736842105264" cx="640" cy="80" fill="hsla(194, 59%, 51%, 1.00)" stroke="none"></circle><rect width="80" height="80" x="720" y="80" opacity="0.15"></rect><circle r="7.894736842105264" cx="720" cy="80" fill="hsla(194, 59%, 51%, 1.00)" stroke="none"></circle><rect width="80" height="80" x="800" y="80" opacity="0.15"></rect><circle r="7.894736842105264" cx="800" cy="80" fill="hsla(194, 59%, 51%, 1.00)" stroke="none"></circle><rect width="80" height="80" x="0" y="160" opacity="0.15"></rect><circle r="7.894736842105264" cx="0" cy="160" fill="hsla(194, 59%, 51%, 1.00)" stroke="none"></circle><rect width="80" height="80" x="80" y="160" opacity="0.15"></rect><circle r="7.894736842105264" cx="80" cy="160" fill="hsla(194, 59%, 51%, 1.00)" stroke="none"></circle><rect width="80" height="80" x="160" y="160" opacity="0.15"></rect><circle r="7.894736842105264" cx="160" cy="160" fill="hsla(194, 59%, 51%, 1.00)" stroke="none"></circle><rect width="80" height="80" x="240" y="160" opacity="0.15"></rect><circle r="7.894736842105264" cx="240" cy="160" fill="hsla(194, 59%, 51%, 1.00)" stroke="none"></circle><rect width="80" height="80" x="320" y="160" opacity="0.15"></rect><circle r="7.894736842105264" cx="320" cy="160" fill="hsla(194, 59%, 51%, 1.00)" stroke="none"></circle><rect width="80" height="80" x="400" y="160" opacity="0.15"></rect><circle r="7.894736842105264" cx="400" cy="160" fill="hsla(194, 59%, 51%, 1.00)" stroke="none"></circle><rect width="80" height="80" x="480" y="160" opacity="0.15"></rect><circle r="7.894736842105264" cx="480" cy="160" fill="hsla(194, 59%, 51%, 1.00)" stroke="none"></circle><rect width="80" height="80" x="560" y="160" opacity="0.15"></rect><circle r="7.894736842105264" cx="560" cy="160" fill="hsla(194, 59%, 51%, 1.00)" stroke="none"></circle><rect width="80" height="80" x="640" y="160" opacity="0.15"></rect><circle r="7.894736842105264" cx="640" cy="160" fill="hsla(194, 59%, 51%, 1.00)" stroke="none"></circle><rect width="80" height="80" x="720" y="160" opacity="0.15"></rect><circle r="7.894736842105264" cx="720" cy="160" fill="hsla(194, 59%, 51%, 1.00)" stroke="none"></circle><rect width="80" height="80" x="800" y="160" opacity="0.15"></rect><circle r="7.894736842105264" cx="800" cy="160" fill="hsla(194, 59%, 51%, 1.00)" stroke="none"></circle><rect width="80" height="80" x="0" y="240" opacity="0.15"></rect><circle r="7.894736842105264" cx="0" cy="240" fill="hsla(194, 59%, 51%, 1.00)" stroke="none"></circle><rect width="80" height="80" x="80" y="240" opacity="0.15"></rect><circle r="7.894736842105264" cx="80" cy="240" fill="hsla(194, 59%, 51%, 1.00)" stroke="none"></circle><rect width="80" height="80" x="160" y="240" opacity="0.15"></rect><circle r="7.894736842105264" cx="160" cy="240" fill="hsla(194, 59%, 51%, 1.00)" stroke="none"></circle><rect width="80" height="80" x="240" y="240" opacity="0.15"></rect><circle r="7.894736842105264" cx="240" cy="240" fill="hsla(194, 59%, 51%, 1.00)" stroke="none"></circle><rect width="80" height="80" x="320" y="240" opacity="0.15"></rect><circle r="7.894736842105264" cx="320" cy="240" fill="hsla(194, 59%, 51%, 1.00)" stroke="none"></circle><rect width="80" height="80" x="400" y="240" opacity="0.15"></rect><circle r="7.894736842105264" cx="400" cy="240" fill="hsla(194, 59%, 51%, 1.00)" stroke="none"></circle><rect width="80" height="80" x="480" y="240" opacity="0.15"></rect><circle r="7.894736842105264" cx="480" cy="240" fill="hsla(194, 59%, 51%, 1.00)" stroke="none"></circle><rect width="80" height="80" x="560" y="240" opacity="0.15"></rect><circle r="7.894736842105264" cx="560" cy="240" fill="hsla(194, 59%, 51%, 1.00)" stroke="none"></circle><rect width="80" height="80" x="640" y="240" opacity="0.15"></rect><circle r="7.894736842105264" cx="640" cy="240" fill="hsla(194, 59%, 51%, 1.00)" stroke="none"></circle><rect width="80" height="80" x="720" y="240" opacity="0.15"></rect><circle r="7.894736842105264" cx="720" cy="240" fill="hsla(194, 59%, 51%, 1.00)" stroke="none"></circle><rect width="80" height="80" x="800" y="240" opacity="0.15"></rect><circle r="7.894736842105264" cx="800" cy="240" fill="hsla(194, 59%, 51%, 1.00)" stroke="none"></circle><rect width="80" height="80" x="0" y="320" opacity="0.15"></rect><circle r="7.894736842105264" cx="0" cy="320" fill="hsla(194, 59%, 51%, 1.00)" stroke="none"></circle><rect width="80" height="80" x="80" y="320" opacity="0.15"></rect><circle r="7.894736842105264" cx="80" cy="320" fill="hsla(194, 59%, 51%, 1.00)" stroke="none"></circle><rect width="80" height="80" x="160" y="320" opacity="0.15"></rect><circle r="7.894736842105264" cx="160" cy="320" fill="hsla(194, 59%, 51%, 1.00)" stroke="none"></circle><rect width="80" height="80" x="240" y="320" opacity="0.15"></rect><circle r="7.894736842105264" cx="240" cy="320" fill="hsla(194, 59%, 51%, 1.00)" stroke="none"></circle><rect width="80" height="80" x="320" y="320" opacity="0.15"></rect><circle r="7.894736842105264" cx="320" cy="320" fill="hsla(194, 59%, 51%, 1.00)" stroke="none"></circle><rect width="80" height="80" x="400" y="320" opacity="0.15"></rect><circle r="7.894736842105264" cx="400" cy="320" fill="hsla(194, 59%, 51%, 1.00)" stroke="none"></circle><rect width="80" height="80" x="480" y="320" opacity="0.15"></rect><circle r="7.894736842105264" cx="480" cy="320" fill="hsla(194, 59%, 51%, 1.00)" stroke="none"></circle><rect width="80" height="80" x="560" y="320" opacity="0.15"></rect><circle r="7.894736842105264" cx="560" cy="320" fill="hsla(194, 59%, 51%, 1.00)" stroke="none"></circle><rect width="80" height="80" x="640" y="320" opacity="0.15"></rect><circle r="7.894736842105264" cx="640" cy="320" fill="hsla(194, 59%, 51%, 1.00)" stroke="none"></circle><rect width="80" height="80" x="720" y="320" opacity="0.15"></rect><circle r="7.894736842105264" cx="720" cy="320" fill="hsla(194, 59%, 51%, 1.00)" stroke="none"></circle><rect width="80" height="80" x="800" y="320" opacity="0.15"></rect><circle r="7.894736842105264" cx="800" cy="320" fill="hsla(194, 59%, 51%, 1.00)" stroke="none"></circle><rect width="80" height="80" x="0" y="400" opacity="0.15"></rect><circle r="7.894736842105264" cx="0" cy="400" fill="hsla(194, 59%, 51%, 1.00)" stroke="none"></circle><rect width="80" height="80" x="80" y="400" opacity="0.15"></rect><circle r="7.894736842105264" cx="80" cy="400" fill="hsla(194, 59%, 51%, 1.00)" stroke="none"></circle><rect width="80" height="80" x="160" y="400" opacity="0.15"></rect><circle r="7.894736842105264" cx="160" cy="400" fill="hsla(194, 59%, 51%, 1.00)" stroke="none"></circle><rect width="80" height="80" x="240" y="400" opacity="0.15"></rect><circle r="7.894736842105264" cx="240" cy="400" fill="hsla(194, 59%, 51%, 1.00)" stroke="none"></circle><rect width="80" height="80" x="320" y="400" opacity="0.15"></rect><circle r="7.894736842105264" cx="320" cy="400" fill="hsla(194, 59%, 51%, 1.00)" stroke="none"></circle><rect width="80" height="80" x="400" y="400" opacity="0.15"></rect><circle r="7.894736842105264" cx="400" cy="400" fill="hsla(194, 59%, 51%, 1.00)" stroke="none"></circle><rect width="80" height="80" x="480" y="400" opacity="0.15"></rect><circle r="7.894736842105264" cx="480" cy="400" fill="hsla(194, 59%, 51%, 1.00)" stroke="none"></circle><rect width="80" height="80" x="560" y="400" opacity="0.15"></rect><circle r="7.894736842105264" cx="560" cy="400" fill="hsla(194, 59%, 51%, 1.00)" stroke="none"></circle><rect width="80" height="80" x="640" y="400" opacity="0.15"></rect><circle r="7.894736842105264" cx="640" cy="400" fill="hsla(194, 59%, 51%, 1.00)" stroke="none"></circle><rect width="80" height="80" x="720" y="400" opacity="0.15"></rect><circle r="7.894736842105264" cx="720" cy="400" fill="hsla(194, 59%, 51%, 1.00)" stroke="none"></circle><rect width="80" height="80" x="800" y="400" opacity="0.15"></rect><circle r="7.894736842105264" cx="800" cy="400" fill="hsla(194, 59%, 51%, 1.00)" stroke="none"></circle><rect width="80" height="80" x="0" y="480" opacity="0.15"></rect><circle r="7.894736842105264" cx="0" cy="480" fill="hsla(194, 59%, 51%, 1.00)" stroke="none"></circle><rect width="80" height="80" x="80" y="480" opacity="0.15"></rect><circle r="7.894736842105264" cx="80" cy="480" fill="hsla(194, 59%, 51%, 1.00)" stroke="none"></circle><rect width="80" height="80" x="160" y="480" opacity="0.15"></rect><circle r="7.894736842105264" cx="160" cy="480" fill="hsla(194, 59%, 51%, 1.00)" stroke="none"></circle><rect width="80" height="80" x="240" y="480" opacity="0.15"></rect><circle r="7.894736842105264" cx="240" cy="480" fill="hsla(194, 59%, 51%, 1.00)" stroke="none"></circle><rect width="80" height="80" x="320" y="480" opacity="0.15"></rect><circle r="7.894736842105264" cx="320" cy="480" fill="hsla(194, 59%, 51%, 1.00)" stroke="none"></circle><rect width="80" height="80" x="400" y="480" opacity="0.15"></rect><circle r="7.894736842105264" cx="400" cy="480" fill="hsla(194, 59%, 51%, 1.00)" stroke="none"></circle><rect width="80" height="80" x="480" y="480" opacity="0.15"></rect><circle r="7.894736842105264" cx="480" cy="480" fill="hsla(194, 59%, 51%, 1.00)" stroke="none"></circle><rect width="80" height="80" x="560" y="480" opacity="0.15"></rect><circle r="7.894736842105264" cx="560" cy="480" fill="hsla(194, 59%, 51%, 1.00)" stroke="none"></circle><rect width="80" height="80" x="640" y="480" opacity="0.15"></rect><circle r="7.894736842105264" cx="640" cy="480" fill="hsla(194, 59%, 51%, 1.00)" stroke="none"></circle><rect width="80" height="80" x="720" y="480" opacity="0.15"></rect><circle r="7.894736842105264" cx="720" cy="480" fill="hsla(194, 59%, 51%, 1.00)" stroke="none"></circle><rect width="80" height="80" x="800" y="480" opacity="0.15"></rect><circle r="7.894736842105264" cx="800" cy="480" fill="hsla(194, 59%, 51%, 1.00)" stroke="none"></circle><rect width="80" height="80" x="0" y="560" opacity="0.15"></rect><circle r="7.894736842105264" cx="0" cy="560" fill="hsla(194, 59%, 51%, 1.00)" stroke="none"></circle><rect width="80" height="80" x="80" y="560" opacity="0.15"></rect><circle r="7.894736842105264" cx="80" cy="560" fill="hsla(194, 59%, 51%, 1.00)" stroke="none"></circle><rect width="80" height="80" x="160" y="560" opacity="0.15"></rect><circle r="7.894736842105264" cx="160" cy="560" fill="hsla(194, 59%, 51%, 1.00)" stroke="none"></circle><rect width="80" height="80" x="240" y="560" opacity="0.15"></rect><circle r="7.894736842105264" cx="240" cy="560" fill="hsla(194, 59%, 51%, 1.00)" stroke="none"></circle><rect width="80" height="80" x="320" y="560" opacity="0.15"></rect><circle r="7.894736842105264" cx="320" cy="560" fill="hsla(194, 59%, 51%, 1.00)" stroke="none"></circle><rect width="80" height="80" x="400" y="560" opacity="0.15"></rect><circle r="7.894736842105264" cx="400" cy="560" fill="hsla(194, 59%, 51%, 1.00)" stroke="none"></circle><rect width="80" height="80" x="480" y="560" opacity="0.15"></rect><circle r="7.894736842105264" cx="480" cy="560" fill="hsla(194, 59%, 51%, 1.00)" stroke="none"></circle><rect width="80" height="80" x="560" y="560" opacity="0.15"></rect><circle r="7.894736842105264" cx="560" cy="560" fill="hsla(194, 59%, 51%, 1.00)" stroke="none"></circle><rect width="80" height="80" x="640" y="560" opacity="0.15"></rect><circle r="7.894736842105264" cx="640" cy="560" fill="hsla(194, 59%, 51%, 1.00)" stroke="none"></circle><rect width="80" height="80" x="720" y="560" opacity="0.15"></rect><circle r="7.894736842105264" cx="720" cy="560" fill="hsla(194, 59%, 51%, 1.00)" stroke="none"></circle><rect width="80" height="80" x="800" y="560" opacity="0.15"></rect><circle r="7.894736842105264" cx="800" cy="560" fill="hsla(194, 59%, 51%, 1.00)" stroke="none"></circle><rect width="80" height="80" x="0" y="640" opacity="0.15"></rect><circle r="7.894736842105264" cx="0" cy="640" fill="hsla(194, 59%, 51%, 1.00)" stroke="none"></circle><rect width="80" height="80" x="80" y="640" opacity="0.15"></rect><circle r="7.894736842105264" cx="80" cy="640" fill="hsla(194, 59%, 51%, 1.00)" stroke="none"></circle><rect width="80" height="80" x="160" y="640" opacity="0.15"></rect><circle r="7.894736842105264" cx="160" cy="640" fill="hsla(194, 59%, 51%, 1.00)" stroke="none"></circle><rect width="80" height="80" x="240" y="640" opacity="0.15"></rect><circle r="7.894736842105264" cx="240" cy="640" fill="hsla(194, 59%, 51%, 1.00)" stroke="none"></circle><rect width="80" height="80" x="320" y="640" opacity="0.15"></rect><circle r="7.894736842105264" cx="320" cy="640" fill="hsla(194, 59%, 51%, 1.00)" stroke="none"></circle><rect width="80" height="80" x="400" y="640" opacity="0.15"></rect><circle r="7.894736842105264" cx="400" cy="640" fill="hsla(194, 59%, 51%, 1.00)" stroke="none"></circle><rect width="80" height="80" x="480" y="640" opacity="0.15"></rect><circle r="7.894736842105264" cx="480" cy="640" fill="hsla(194, 59%, 51%, 1.00)" stroke="none"></circle><rect width="80" height="80" x="560" y="640" opacity="0.15"></rect><circle r="7.894736842105264" cx="560" cy="640" fill="hsla(194, 59%, 51%, 1.00)" stroke="none"></circle><rect width="80" height="80" x="640" y="640" opacity="0.15"></rect><circle r="7.894736842105264" cx="640" cy="640" fill="hsla(194, 59%, 51%, 1.00)" stroke="none"></circle><rect width="80" height="80" x="720" y="640" opacity="0.15"></rect><circle r="7.894736842105264" cx="720" cy="640" fill="hsla(194, 59%, 51%, 1.00)" stroke="none"></circle><rect width="80" height="80" x="800" y="640" opacity="0.15"></rect><circle r="7.894736842105264" cx="800" cy="640" fill="hsla(194, 59%, 51%, 1.00)" stroke="none"></circle><rect width="80" height="80" x="0" y="720" opacity="0.15"></rect><circle r="7.894736842105264" cx="0" cy="720" fill="hsla(194, 59%, 51%, 1.00)" stroke="none"></circle><rect width="80" height="80" x="80" y="720" opacity="0.15"></rect><circle r="7.894736842105264" cx="80" cy="720" fill="hsla(194, 59%, 51%, 1.00)" stroke="none"></circle><rect width="80" height="80" x="160" y="720" opacity="0.15"></rect><circle r="7.894736842105264" cx="160" cy="720" fill="hsla(194, 59%, 51%, 1.00)" stroke="none"></circle><rect width="80" height="80" x="240" y="720" opacity="0.15"></rect><circle r="7.894736842105264" cx="240" cy="720" fill="hsla(194, 59%, 51%, 1.00)" stroke="none"></circle><rect width="80" height="80" x="320" y="720" opacity="0.15"></rect><circle r="7.894736842105264" cx="320" cy="720" fill="hsla(194, 59%, 51%, 1.00)" stroke="none"></circle><rect width="80" height="80" x="400" y="720" opacity="0.15"></rect><circle r="7.894736842105264" cx="400" cy="720" fill="hsla(194, 59%, 51%, 1.00)" stroke="none"></circle><rect width="80" height="80" x="480" y="720" opacity="0.15"></rect><circle r="7.894736842105264" cx="480" cy="720" fill="hsla(194, 59%, 51%, 1.00)" stroke="none"></circle><rect width="80" height="80" x="560" y="720" opacity="0.15"></rect><circle r="7.894736842105264" cx="560" cy="720" fill="hsla(194, 59%, 51%, 1.00)" stroke="none"></circle><rect width="80" height="80" x="640" y="720" opacity="0.15"></rect><circle r="7.894736842105264" cx="640" cy="720" fill="hsla(194, 59%, 51%, 1.00)" stroke="none"></circle><rect width="80" height="80" x="720" y="720" opacity="0.15"></rect><circle r="7.894736842105264" cx="720" cy="720" fill="hsla(194, 59%, 51%, 1.00)" stroke="none"></circle><rect width="80" height="80" x="800" y="720" opacity="0.15"></rect><circle r="7.894736842105264" cx="800" cy="720" fill="hsla(194, 59%, 51%, 1.00)" stroke="none"></circle><rect width="80" height="80" x="0" y="800" opacity="0.15"></rect><circle r="7.894736842105264" cx="0" cy="800" fill="hsla(194, 59%, 51%, 1.00)" stroke="none"></circle><rect width="80" height="80" x="80" y="800" opacity="0.15"></rect><circle r="7.894736842105264" cx="80" cy="800" fill="hsla(194, 59%, 51%, 1.00)" stroke="none"></circle><rect width="80" height="80" x="160" y="800" opacity="0.15"></rect><circle r="7.894736842105264" cx="160" cy="800" fill="hsla(194, 59%, 51%, 1.00)" stroke="none"></circle><rect width="80" height="80" x="240" y="800" opacity="0.15"></rect><circle r="7.894736842105264" cx="240" cy="800" fill="hsla(194, 59%, 51%, 1.00)" stroke="none"></circle><rect width="80" height="80" x="320" y="800" opacity="0.15"></rect><circle r="7.894736842105264" cx="320" cy="800" fill="hsla(194, 59%, 51%, 1.00)" stroke="none"></circle><rect width="80" height="80" x="400" y="800" opacity="0.15"></rect><circle r="7.894736842105264" cx="400" cy="800" fill="hsla(194, 59%, 51%, 1.00)" stroke="none"></circle><rect width="80" height="80" x="480" y="800" opacity="0.15"></rect><circle r="7.894736842105264" cx="480" cy="800" fill="hsla(194, 59%, 51%, 1.00)" stroke="none"></circle><rect width="80" height="80" x="560" y="800" opacity="0.15"></rect><circle r="7.894736842105264" cx="560" cy="800" fill="hsla(194, 59%, 51%, 1.00)" stroke="none"></circle><rect width="80" height="80" x="640" y="800" opacity="0.15"></rect><circle r="7.894736842105264" cx="640" cy="800" fill="hsla(194, 59%, 51%, 1.00)" stroke="none"></circle><rect width="80" height="80" x="720" y="800" opacity="0.15"></rect><circle r="7.894736842105264" cx="720" cy="800" fill="hsla(194, 59%, 51%, 1.00)" stroke="none"></circle><rect width="80" height="80" x="800" y="800" opacity="0.15"></rect><circle r="7.894736842105264" cx="800" cy="800" fill="hsla(194, 59%, 51%, 1.00)" stroke="none"></circle></g></svg>