<?xml version="1.0" encoding="UTF-8"?>
<svg id="Layer_2" data-name="Layer 2" xmlns="http://www.w3.org/2000/svg" xmlns:xlink="http://www.w3.org/1999/xlink" viewBox="0 0 193.18 52.15">
  <defs>
    <style>
      .cls-1, .cls-2 {
        fill: #fff;
      }

      .cls-3 {
        letter-spacing: -.02em;
      }

      .cls-2 {
        font-family: FSHackneyWeb-Bold, 'FS Hackney Web';
        font-size: 24.55px;
        font-weight: 700;
      }

      .cls-4, .cls-5 {
        fill: #0d3956;
      }

      .cls-6 {
        letter-spacing: -.01em;
      }

      .cls-7 {
        fill: url(#linear-gradient);
      }

      .cls-5 {
        stroke: #231f20;
        stroke-miterlimit: 10;
      }
    </style>
    <linearGradient id="linear-gradient" x1="51.51" y1="35.78" x2="-1.56" y2="15.53" gradientUnits="userSpaceOnUse">
      <stop offset="0" stop-color="#2471b0"/>
      <stop offset=".23" stop-color="#2e8abc"/>
      <stop offset=".48" stop-color="#369cc5"/>
      <stop offset=".73" stop-color="#3ba8cb"/>
      <stop offset="1" stop-color="#3daccd"/>
    </linearGradient>
  </defs>
  <g id="Layer_1-2" data-name="Layer 1">
    <g>
      <text class="cls-2" transform="translate(59.02 30.73)"><tspan class="cls-3" x="0" y="0">S</tspan><tspan x="14.24" y="0">tackH</tspan><tspan class="cls-6" x="80.69" y="0">av</tspan><tspan x="106.46" y="0">en</tspan></text>
      <g>
        <path class="cls-4" d="m22.22,5.84h0s.02,0,.02,0c0,0-.02,0-.02,0Z"/>
        <path class="cls-7" d="m42.65,7.83l-4.98-2.35-.04-.02-4.3-2.03-.04-.02-.06-.03L26.17.06l-.1-.05h0s-.1.04-.1.04l-7.06,3.33-.12.05h0s-4.33,2.05-4.33,2.05h0s-.05.03-.05.03l-4.91,2.31L0,12.29h.01s-.01.01-.01.01v8.19l14.45,3.98,4.34,1.19,14.54,4,4.34,1.2v11.67s-.03.01-.04.02c-1.41.63-2.85,1.21-4.3,1.78v-10.16l-14.54-4v14.15c-1.46-.57-2.91-1.16-4.33-1.79,0,0,0,0,0,0v-13.55L.03,25.01c0,.29.01.58.02.88,0,.09,0,.18,0,.27.04,1.93.09,3.66.64,5.51.47,1.6,1.18,3.12,2.07,4.53,1.92,3.08,4.61,5.63,7.57,7.69,1.33.92,2.71,1.76,4.12,2.54,0,0,0,0,0,0,1.42.78,2.87,1.51,4.33,2.22,0,0,0,0,0,0,2.36,1.14,4.76,2.23,7.1,3.41,0,0,.16.08.17.09,0,0,.16-.08.17-.09,2.32-1.17,4.7-2.25,7.05-3.38.01,0,.03-.01.04-.02,1.45-.7,2.89-1.42,4.3-2.2.01,0,.03-.02.04-.02,1.42-.78,2.81-1.62,4.14-2.55,2.96-2.06,5.65-4.62,7.57-7.69.88-1.41,1.6-2.93,2.07-4.53.12-.42.22-.83.3-1.25h0c.06-.32.11-.64.15-.96l-14.23-3.92-4.34-1.19-14.54-4-4.34-1.19v-9.73h0s4.33-1.66,4.33-1.66v8.08l14.54,4V7.75l4.3,1.64.04.02v11.63l14.44,3.98c.01-.63.02-1.26.03-1.89v-10.82l-9.49-4.47Zm-19.9.8h0s.01,0,.02,0c0,0-.01,0-.02,0Z"/>
        <path class="cls-1" d="m22.74,8.62s-.01,0-.02,0h0s.01,0,.02,0Z"/>
        <path class="cls-5" d="m22.74,8.62s-.01,0-.02,0h0s.01,0,.02,0Z"/>
      </g>
    </g>
  </g>
</svg>