<?xml version="1.0" encoding="UTF-8"?>
<svg id="Layer_2" data-name="Layer 2" xmlns="http://www.w3.org/2000/svg" xmlns:xlink="http://www.w3.org/1999/xlink" viewBox="0 0 1268.5 1268.76">
  <defs>
    <style>
      .cls-1 {
        fill: #fff;
      }

      .cls-2 {
        fill: url(#linear-gradient);
      }

      .cls-3 {
        fill: #0d3956;
        stroke: #231f20;
        stroke-miterlimit: 10;
      }
    </style>
    <linearGradient id="linear-gradient" x1="1253.08" y1="870.51" x2="-38.06" y2="377.84" gradientUnits="userSpaceOnUse">
      <stop offset="0" stop-color="#2471b0"/>
      <stop offset=".26" stop-color="#2a7db0"/>
      <stop offset=".62" stop-color="#3089b0"/>
      <stop offset="1" stop-color="#328db1"/>
    </linearGradient>
  </defs>
  <g id="Layer_1-2" data-name="Layer 1">
    <g>
      <path class="cls-3" d="m540.5,142.09v-.34c.22.06.38.12.6.17-.22.06-.38.1-.6.16Z"/>
      <path class="cls-2" d="m1037.66,190.51l-121.27-57.19-1-.47-104.58-49.32-1-.47-1.41-.66L636.67,1.42l-2.42-1.14v-.28l-2.41,1.14-171.74,80.98-2.8,1.32-.22.1-105.36,49.69-.21.1-1.26.59-119.41,56.31L0,299.08l.26.16-.25.12v199.37l351.5,96.79,105.57,29.07,353.73,97.4,105.58,29.08v283.94c-.33.14-.67.3-1,.44-34.25,15.24-69.27,29.42-104.58,43.22v-247.18l-353.73-97.4v344.33c-35.59-13.89-70.87-28.2-105.36-43.59-.07-.03-.14-.06-.21-.1v-329.71L.76,608.44c.13,7.11.27,14.22.42,21.33.05,2.18.09,4.37.14,6.55.99,46.89,2.22,89.02,15.48,134.05,11.46,38.94,28.82,75.96,50.29,110.32,46.76,74.82,112.17,137.05,184.21,187.12,32.29,22.44,65.86,42.73,100.21,61.68.07.04.14.08.21.12,34.49,19.02,69.77,36.71,105.36,53.89.07.04.15.07.22.11,57.53,27.78,115.84,54.26,172.83,83.01.23.11,3.91,2.03,4.12,2.14.22-.11,3.9-2.03,4.12-2.14,56.53-28.51,114.36-54.8,171.44-82.34.33-.16.67-.32,1-.48,35.31-17.05,70.33-34.58,104.58-53.42.33-.18.67-.37,1-.55,34.56-19.05,68.33-39.44,100.81-62.02,72.05-50.07,137.45-112.3,184.21-187.12,21.47-34.36,38.83-71.38,50.3-110.32,3.01-10.23,5.4-20.3,7.3-30.32h0c1.49-7.82,2.68-15.59,3.65-23.37l-346.27-95.35-105.58-29.07-353.73-97.4-105.57-29.07v-236.84l.21-.08,105.36-40.2v196.68l353.73,97.4V188.67l104.58,39.89,1,.38v282.88l351.35,96.75c.29-15.29.54-30.59.76-45.89v-263.32l-230.84-108.85Zm-484.25,19.39v-.29c.19.05.33.1.52.15-.19.05-.33.1-.52.14Z"/>
      <path class="cls-1" d="m553.32,209.76c-.19.05-.33.1-.52.14v-.29c.19.05.33.1.52.15Z"/>
      <path class="cls-3" d="m553.32,209.76c-.19.05-.33.1-.52.14v-.29c.19.05.33.1.52.15Z"/>
    </g>
  </g>
</svg>